<svg width="318" height="128" viewBox="0 0 318 128" fill="none" xmlns="http://www.w3.org/2000/svg">
<path d="M4.66504 103.158V107.919H9.96777C10.915 107.919 11.6816 107.743 12.2676 107.392C12.8633 107.03 13.1611 106.396 13.1611 105.487C13.1611 104.481 12.7705 103.817 11.9893 103.495C11.3154 103.271 10.4561 103.158 9.41113 103.158H4.66504ZM4.66504 111.493V117.25H9.96777C10.915 117.25 11.6523 117.123 12.1797 116.869C13.1367 116.4 13.6152 115.502 13.6152 114.174C13.6152 113.051 13.1514 112.279 12.2236 111.859C11.7061 111.625 10.9785 111.503 10.041 111.493H4.66504ZM10.8467 99.4082C13.4932 99.4473 15.3682 100.214 16.4717 101.708C17.1357 102.626 17.4678 103.725 17.4678 105.004C17.4678 106.322 17.1357 107.382 16.4717 108.183C16.1006 108.632 15.5537 109.042 14.8311 109.413C15.9346 109.813 16.7646 110.448 17.3213 111.317C17.8877 112.187 18.1709 113.241 18.1709 114.481C18.1709 115.761 17.8486 116.908 17.2041 117.924C16.7939 118.598 16.2812 119.164 15.666 119.623C14.9727 120.15 14.1523 120.512 13.2051 120.707C12.2676 120.902 11.2471 121 10.1436 121H0.358398V99.4082H10.8467ZM27.9268 108.051C26.96 108.051 26.208 108.354 25.6709 108.959C25.1436 109.564 24.8115 110.385 24.6748 111.42H31.1641C31.0957 110.316 30.7588 109.481 30.1533 108.915C29.5576 108.339 28.8154 108.051 27.9268 108.051ZM27.9268 104.608C29.2549 104.608 30.4512 104.857 31.5156 105.355C32.5801 105.854 33.459 106.64 34.1523 107.714C34.7773 108.661 35.1826 109.76 35.3682 111.01C35.4756 111.742 35.5195 112.797 35.5 114.174H24.5723C24.6309 115.775 25.1338 116.898 26.0811 117.543C26.6572 117.943 27.3506 118.144 28.1611 118.144C29.0205 118.144 29.7188 117.899 30.2559 117.411C30.5488 117.147 30.8076 116.781 31.0322 116.312H35.2949C35.1875 117.26 34.6943 118.222 33.8154 119.198C32.4482 120.751 30.5342 121.527 28.0732 121.527C26.042 121.527 24.25 120.873 22.6973 119.564C21.1445 118.256 20.3682 116.127 20.3682 113.178C20.3682 110.414 21.0664 108.295 22.4629 106.82C23.8691 105.346 25.6904 104.608 27.9268 104.608ZM56.1689 104.682C56.8721 104.682 57.5654 104.818 58.249 105.092C58.9326 105.365 59.5527 105.844 60.1094 106.527C60.5586 107.084 60.8613 107.768 61.0176 108.578C61.1152 109.115 61.1641 109.901 61.1641 110.937L61.1348 121H56.8574V110.834C56.8574 110.229 56.7598 109.73 56.5645 109.34C56.1934 108.598 55.5098 108.227 54.5137 108.227C53.3613 108.227 52.5654 108.705 52.126 109.662C51.9014 110.17 51.7891 110.78 51.7891 111.493V121H47.585V111.493C47.585 110.546 47.4873 109.857 47.292 109.428C46.9404 108.656 46.252 108.271 45.2266 108.271C44.0352 108.271 43.2344 108.656 42.8242 109.428C42.5996 109.867 42.4873 110.521 42.4873 111.391V121H38.2539V105.062H42.3115V107.392C42.8291 106.562 43.3174 105.971 43.7764 105.619C44.5869 104.994 45.6367 104.682 46.9258 104.682C48.1465 104.682 49.1328 104.95 49.8848 105.487C50.4902 105.985 50.9492 106.625 51.2617 107.406C51.8086 106.469 52.4873 105.78 53.2979 105.341C54.1572 104.901 55.1143 104.682 56.1689 104.682ZM83.21 105.033H87.6924L81.9355 121H77.5264L71.7988 105.033H76.4863L79.8115 116.811L83.21 105.033ZM94.3574 103.129H90.124V99.2764H94.3574V103.129ZM90.124 105.033H94.3574V121H90.124V105.033ZM107.263 104.652C108.913 104.652 110.261 105.087 111.306 105.956C112.36 106.815 112.888 108.246 112.888 110.248V121H108.61V111.288C108.61 110.448 108.498 109.804 108.273 109.354C107.863 108.534 107.082 108.124 105.93 108.124C104.514 108.124 103.542 108.725 103.015 109.926C102.741 110.561 102.604 111.371 102.604 112.357V121H98.4443V105.062H102.473V107.392C103.01 106.571 103.518 105.98 103.996 105.619C104.855 104.975 105.944 104.652 107.263 104.652ZM122.644 104.652C123.61 104.652 124.47 104.867 125.222 105.297C125.974 105.717 126.584 106.303 127.053 107.055V99.4375H131.286V121H127.229V118.788C126.633 119.735 125.954 120.424 125.192 120.854C124.431 121.283 123.483 121.498 122.351 121.498C120.485 121.498 118.913 120.746 117.634 119.242C116.364 117.729 115.729 115.79 115.729 113.427C115.729 110.702 116.354 108.559 117.604 106.996C118.864 105.434 120.544 104.652 122.644 104.652ZM123.552 117.982C124.733 117.982 125.632 117.543 126.247 116.664C126.862 115.785 127.17 114.647 127.17 113.251C127.17 111.298 126.677 109.901 125.69 109.062C125.085 108.554 124.382 108.3 123.581 108.3C122.36 108.3 121.462 108.764 120.886 109.691C120.319 110.609 120.036 111.752 120.036 113.119C120.036 114.594 120.324 115.775 120.9 116.664C121.486 117.543 122.37 117.982 123.552 117.982ZM142.258 118.056C143.479 118.056 144.416 117.621 145.07 116.752C145.725 115.883 146.052 114.647 146.052 113.046C146.052 111.444 145.725 110.214 145.07 109.354C144.416 108.485 143.479 108.051 142.258 108.051C141.037 108.051 140.095 108.485 139.431 109.354C138.776 110.214 138.449 111.444 138.449 113.046C138.449 114.647 138.776 115.883 139.431 116.752C140.095 117.621 141.037 118.056 142.258 118.056ZM150.432 113.046C150.432 115.39 149.758 117.396 148.41 119.066C147.062 120.727 145.017 121.557 142.272 121.557C139.528 121.557 137.482 120.727 136.135 119.066C134.787 117.396 134.113 115.39 134.113 113.046C134.113 110.741 134.787 108.744 136.135 107.055C137.482 105.365 139.528 104.521 142.272 104.521C145.017 104.521 147.062 105.365 148.41 107.055C149.758 108.744 150.432 110.741 150.432 113.046ZM170.588 113.236C170.324 113.402 170.056 113.539 169.782 113.646C169.519 113.744 169.152 113.837 168.684 113.925L167.746 114.101C166.867 114.257 166.237 114.447 165.856 114.672C165.212 115.053 164.89 115.644 164.89 116.444C164.89 117.157 165.085 117.675 165.476 117.997C165.876 118.31 166.359 118.466 166.926 118.466C167.824 118.466 168.649 118.202 169.401 117.675C170.163 117.147 170.559 116.186 170.588 114.789V113.236ZM168.054 111.288C168.825 111.19 169.377 111.068 169.709 110.922C170.305 110.668 170.603 110.272 170.603 109.735C170.603 109.081 170.373 108.632 169.914 108.388C169.465 108.134 168.801 108.007 167.922 108.007C166.936 108.007 166.237 108.251 165.827 108.739C165.534 109.101 165.339 109.589 165.241 110.204H161.213C161.301 108.808 161.691 107.66 162.385 106.762C163.488 105.355 165.383 104.652 168.068 104.652C169.816 104.652 171.369 104.999 172.727 105.692C174.084 106.386 174.763 107.694 174.763 109.618V116.942C174.763 117.45 174.772 118.065 174.792 118.788C174.821 119.335 174.904 119.706 175.041 119.901C175.178 120.097 175.383 120.258 175.656 120.385V121H171.115C170.988 120.678 170.9 120.375 170.852 120.092C170.803 119.809 170.764 119.486 170.734 119.125C170.158 119.75 169.494 120.282 168.742 120.722C167.844 121.239 166.828 121.498 165.695 121.498C164.25 121.498 163.054 121.088 162.106 120.268C161.169 119.438 160.7 118.266 160.7 116.752C160.7 114.789 161.457 113.368 162.971 112.489C163.801 112.011 165.021 111.669 166.633 111.464L168.054 111.288ZM185.646 118.056C186.867 118.056 187.805 117.621 188.459 116.752C189.113 115.883 189.44 114.647 189.44 113.046C189.44 111.444 189.113 110.214 188.459 109.354C187.805 108.485 186.867 108.051 185.646 108.051C184.426 108.051 183.483 108.485 182.819 109.354C182.165 110.214 181.838 111.444 181.838 113.046C181.838 114.647 182.165 115.883 182.819 116.752C183.483 117.621 184.426 118.056 185.646 118.056ZM193.82 113.046C193.82 115.39 193.146 117.396 191.799 119.066C190.451 120.727 188.405 121.557 185.661 121.557C182.917 121.557 180.871 120.727 179.523 119.066C178.176 117.396 177.502 115.39 177.502 113.046C177.502 110.741 178.176 108.744 179.523 107.055C180.871 105.365 182.917 104.521 185.661 104.521C188.405 104.521 190.451 105.365 191.799 107.055C193.146 108.744 193.82 110.741 193.82 113.046ZM208.146 112.812V113.31C208.186 114.979 208.366 116.156 208.688 116.84C209.021 117.514 209.724 117.851 210.798 117.851C211.862 117.851 212.565 117.479 212.907 116.737C213.112 116.298 213.215 115.556 213.215 114.511V99.4082H217.727V114.438C217.727 116.273 217.409 117.729 216.774 118.803C215.7 120.619 213.762 121.527 210.959 121.527C208.156 121.527 206.276 120.795 205.319 119.33C204.362 117.855 203.884 115.849 203.884 113.31V112.812H208.146ZM226.032 105.033V114.657C226.032 115.565 226.14 116.249 226.354 116.708C226.735 117.519 227.482 117.924 228.596 117.924C230.021 117.924 230.998 117.348 231.525 116.195C231.799 115.57 231.936 114.745 231.936 113.72V105.033H236.169V121H232.111V118.744C232.072 118.793 231.975 118.939 231.818 119.184C231.662 119.428 231.477 119.643 231.262 119.828C230.607 120.414 229.973 120.814 229.357 121.029C228.752 121.244 228.039 121.352 227.219 121.352C224.855 121.352 223.264 120.502 222.443 118.803C221.984 117.865 221.755 116.483 221.755 114.657V105.033H226.032ZM258.054 104.682C258.757 104.682 259.45 104.818 260.134 105.092C260.817 105.365 261.438 105.844 261.994 106.527C262.443 107.084 262.746 107.768 262.902 108.578C263 109.115 263.049 109.901 263.049 110.937L263.02 121H258.742V110.834C258.742 110.229 258.645 109.73 258.449 109.34C258.078 108.598 257.395 108.227 256.398 108.227C255.246 108.227 254.45 108.705 254.011 109.662C253.786 110.17 253.674 110.78 253.674 111.493V121H249.47V111.493C249.47 110.546 249.372 109.857 249.177 109.428C248.825 108.656 248.137 108.271 247.111 108.271C245.92 108.271 245.119 108.656 244.709 109.428C244.484 109.867 244.372 110.521 244.372 111.391V121H240.139V105.062H244.196V107.392C244.714 106.562 245.202 105.971 245.661 105.619C246.472 104.994 247.521 104.682 248.811 104.682C250.031 104.682 251.018 104.95 251.77 105.487C252.375 105.985 252.834 106.625 253.146 107.406C253.693 106.469 254.372 105.78 255.183 105.341C256.042 104.901 256.999 104.682 258.054 104.682ZM277.902 113.017C277.902 111.786 277.619 110.697 277.053 109.75C276.496 108.803 275.588 108.329 274.328 108.329C272.814 108.329 271.774 109.047 271.208 110.482C270.915 111.244 270.769 112.211 270.769 113.383C270.769 115.238 271.262 116.542 272.248 117.294C272.834 117.733 273.527 117.953 274.328 117.953C275.49 117.953 276.374 117.504 276.979 116.605C277.595 115.707 277.902 114.511 277.902 113.017ZM275.529 104.682C277.395 104.682 278.972 105.37 280.261 106.747C281.56 108.124 282.209 110.146 282.209 112.812C282.209 115.624 281.574 117.768 280.305 119.242C279.045 120.717 277.419 121.454 275.427 121.454C274.157 121.454 273.103 121.137 272.263 120.502C271.804 120.15 271.354 119.638 270.915 118.964V127.284H266.784V105.033H270.783V107.392C271.232 106.698 271.711 106.151 272.219 105.751C273.146 105.038 274.25 104.682 275.529 104.682ZM285.886 124.062L286.413 124.091C286.823 124.11 287.214 124.096 287.585 124.047C287.956 123.998 288.269 123.886 288.522 123.71C288.767 123.544 288.991 123.197 289.196 122.67C289.411 122.143 289.499 121.82 289.46 121.703L283.601 105.033H288.244L291.73 116.811L295.026 105.033H299.465L293.986 120.736C292.932 123.764 292.097 125.639 291.481 126.361C290.866 127.094 289.636 127.46 287.79 127.46C287.419 127.46 287.121 127.455 286.896 127.445C286.672 127.445 286.335 127.431 285.886 127.401V124.062ZM303.288 99.4814H307.873V104.96L306.687 115.038H304.504L303.288 104.96V99.4814ZM303.391 116.767H307.756V121H303.391V116.767Z" fill="white"/>
<path d="M14.0155 51.5143C14.0155 53.1469 13.6803 54.2882 13.0202 54.9048C12.336 55.5432 11.4554 55.8543 10.3292 55.8543C9.61173 55.8543 8.77253 55.7751 7.8369 55.619L7 55.4789V66.3888L7.58663 66.4979C8.4729 66.6644 9.33047 66.7907 10.1329 66.8733C10.9434 66.9571 11.9422 66.9996 13.1028 66.9996C17.8935 66.9996 21.5878 65.794 24.0813 63.415C26.5828 61.0268 27.8525 57.5146 27.8525 52.4936V7.96303H14.0155V51.5143Z" fill="white"/>
<path d="M60.5117 33.8322C60.5117 36.5625 59.8769 38.6292 58.6244 39.976C57.3673 41.3274 55.6855 41.9842 53.4813 41.9842C51.2851 41.9842 49.6481 41.3331 48.4748 39.9921C47.2935 38.643 46.6942 36.5705 46.6942 33.8322V7.96388H32.8584V37.8083C32.8584 43.0267 34.2234 46.3816 36.9166 49.3853C39.6282 52.4141 43.4993 53.9492 48.4231 53.9492C50.0602 53.9492 51.5584 53.7449 52.8763 53.343C54.1839 52.9411 55.395 52.3889 56.4776 51.7C57.5498 51.0168 58.5383 50.2234 59.4154 49.3405C59.7931 48.9604 60.1593 48.678 60.5117 48.2784V53.9469H74.3487V7.96388H60.5117V33.8322Z" fill="white"/>
<path d="M131.791 7.96331C128.699 7.96331 125.901 8.58332 123.473 9.80727C121.333 10.8854 119.348 12.4331 117.562 14.4172C116.402 12.4963 114.849 10.9681 112.938 9.86697C110.743 8.60399 108.111 7.96331 105.117 7.96331C103.477 7.96331 101.966 8.16768 100.627 8.56954C99.2881 8.9714 98.062 9.52482 96.9806 10.2137C95.9061 10.898 94.9165 11.6914 94.0417 12.5721C93.6651 12.9521 93.2989 13.3413 92.9465 13.7409V7.96331H79.1095V53.9464H92.9465V28.8933C92.9465 26.1584 93.5572 24.0882 94.7615 22.7391C95.9635 21.3946 97.5891 20.7413 99.7324 20.7413C101.865 20.7413 103.446 21.3889 104.566 22.723C105.699 24.0744 106.274 26.1503 106.274 28.8933V53.9464H120.111V28.8933C120.111 26.1584 120.722 24.0882 121.926 22.7391C123.127 21.3946 124.753 20.7413 126.897 20.7413C129.03 20.7413 130.61 21.3889 131.73 22.723C132.863 24.0744 133.438 26.1503 133.438 28.8933V53.9464H147.274V24.7541C147.274 19.3118 145.889 15.1095 143.158 12.2632C140.419 9.41 136.594 7.96331 131.791 7.96331Z" fill="white"/>
<path d="M230.785 7.96408L221.752 37.6041L212.331 7.96294H197.628L215.023 53.9494C214.583 54.7646 213.423 55.3307 212.96 55.6326C212.456 55.961 211.724 56.1275 210.782 56.1275C210.05 56.1275 209.237 55.9759 208.365 55.6774C207.466 55.3686 206.62 54.822 205.85 54.3605L205.165 53.9494L198.837 61.2093C198.837 61.2093 200.847 63.1635 201.491 63.7227C202.906 64.9512 204.297 65.593 206.082 66.151C207.886 66.7148 209.989 66.9995 212.332 66.9995C214.242 66.9995 216.664 66.7699 218.143 66.3152C219.65 65.8514 221.013 65.0878 222.199 64.0476C223.365 63.0234 224.441 61.6892 225.401 60.0818C226.344 58.4996 227.241 57.1528 228.068 54.8932L245.235 7.96408H230.785Z" fill="white"/>
<path d="M197.114 21.3476C195.97 18.4749 194.661 16.0086 192.755 14.0177C190.844 12.0233 188.62 10.4974 186.146 9.48471C183.677 8.47547 181.088 7.96339 178.451 7.96339C175.069 7.96339 172.211 8.66607 169.958 10.0531C168.317 11.0634 166.84 12.292 165.547 13.718V7.96339H151.71V67H165.547V48.5776C166.803 49.8084 168.255 50.9233 169.882 51.9027C172.133 53.261 175.016 53.9487 178.451 53.9487C181.142 53.9487 183.758 53.4367 186.227 52.4274C188.704 51.4136 190.915 49.8877 192.8 47.8898C194.676 45.9024 195.971 43.4384 197.114 40.5645V41.3774C198.258 38.5036 198.837 35.1612 198.837 31.4446V31.2816C198.837 27.5661 198.258 24.2238 197.114 21.3476ZM176.748 41.8562C170.562 41.8562 165.546 36.8399 165.546 30.6524C165.546 24.4649 170.562 19.4497 176.748 19.4497C182.935 19.4497 187.95 24.4649 187.95 30.6524C187.95 36.8399 182.935 41.8562 176.748 41.8562Z" fill="white"/>
<path d="M278.148 0.531998H318V40.3895H278.148V0.531998Z" fill="#00D6ED"/>
<path d="M269.409 9.27188H309.261V49.1294H269.409V9.27188Z" fill="#00AAFF"/>
<path d="M259.072 19.6103H298.924V59.4679H279.12C268.048 59.4679 259.072 50.4915 259.072 39.4174V19.6103Z" fill="#0C70F1"/>
</svg>
